<svg width="42" height="42" viewBox="0 0 42 42" fill="none" xmlns="http://www.w3.org/2000/svg">
<rect width="42" height="42" rx="21" fill="#893800" fill-opacity="0.2"/>
<path d="M21.0049 11.8333C23.573 11.8334 25.6846 13.7635 25.792 16.2093H25.7666C25.7696 16.2802 25.7559 16.3515 25.7256 16.4163H25.875C27.0861 16.4164 28.3568 17.2505 28.8057 19.2767L29.542 24.9554C30.0839 28.6574 27.9073 30.1663 24.9854 30.1663H17.041C14.1106 30.1663 11.8659 29.1243 12.4756 24.9554L13.2217 19.2767C13.6028 17.1922 14.9155 16.4163 16.1436 16.4163H16.2178C16.2052 16.348 16.2052 16.2776 16.2178 16.2093C16.3252 13.7636 18.4369 11.8335 21.0049 11.8333ZM18.2188 19.4681C17.7511 19.4681 17.3712 19.8417 17.3711 20.3021C17.3711 20.7626 17.751 21.136 18.2188 21.136C18.6863 21.1358 19.0654 20.7624 19.0654 20.3021C19.0653 19.8418 18.6862 19.4683 18.2188 19.4681ZM23.7656 19.4681C23.2981 19.4682 22.9191 19.8418 22.9189 20.3021C22.9189 20.7625 23.298 21.1359 23.7656 21.136C24.2334 21.136 24.6133 20.7626 24.6133 20.3021C24.6131 19.8417 24.2333 19.4681 23.7656 19.4681ZM20.9678 13.0276C19.124 13.0276 17.6292 14.4518 17.6289 16.2093C17.6415 16.2776 17.6415 16.348 17.6289 16.4163H24.3477C24.3211 16.3504 24.3076 16.2799 24.3066 16.2093C24.3064 14.4519 22.8114 13.0278 20.9678 13.0276Z" fill="#893800"/>
</svg>
