<svg width="42" height="42" viewBox="0 0 42 42" fill="none" xmlns="http://www.w3.org/2000/svg">
<rect width="42" height="42" rx="21" fill="#893800" fill-opacity="0.2"/>
<path fill-rule="evenodd" clip-rule="evenodd" d="M30.7872 19.539C30.6518 19.6706 30.4681 19.7457 30.2747 19.7457C29.559 19.7457 28.9787 20.3095 28.9787 20.9953C28.9787 21.6858 29.5522 22.2467 30.2611 22.2543C30.6605 22.258 31 22.5286 31 22.9166V25.3265C31 27.3549 29.3075 29 27.2186 29H24.0658C23.7398 29 23.4758 28.7435 23.4758 28.4269V26.3975C23.4758 26.0029 23.1567 25.6929 22.7505 25.6929C22.354 25.6929 22.0251 26.0029 22.0251 26.3975V28.4269C22.0251 28.7435 21.7611 29 21.4362 29H14.7814C12.7021 29 11 27.3558 11 25.3265V22.9166C11 22.5286 11.3395 22.258 11.7389 22.2543C12.4487 22.2467 13.0213 21.6858 13.0213 20.9953C13.0213 20.3282 12.4603 19.8209 11.7253 19.8209C11.5319 19.8209 11.3482 19.7457 11.2128 19.6142C11.0774 19.4827 11 19.3042 11 19.1163V16.6829C11 14.6573 12.706 13 14.7911 13H21.4362C21.7611 13 22.0251 13.2565 22.0251 13.5731V15.9783C22.0251 16.3635 22.354 16.6829 22.7505 16.6829C23.1567 16.6829 23.4758 16.3635 23.4758 15.9783V13.5731C23.4758 13.2565 23.7398 13 24.0658 13H27.2186C29.3075 13 31 14.6442 31 16.6735V19.0411C31 19.229 30.9226 19.4075 30.7872 19.539ZM22.7505 23.8702C23.1567 23.8702 23.4758 23.5508 23.4758 23.1656V19.4075C23.4758 19.0223 23.1567 18.7029 22.7505 18.7029C22.354 18.7029 22.0251 19.0223 22.0251 19.4075V23.1656C22.0251 23.5508 22.354 23.8702 22.7505 23.8702Z" fill="#893800"/>
</svg>
