<svg width="42" height="42" viewBox="0 0 42 42" fill="none" xmlns="http://www.w3.org/2000/svg">
<rect width="42" height="42" rx="21" fill="#893800" fill-opacity="0.2"/>
<path fill-rule="evenodd" clip-rule="evenodd" d="M26.0478 17.9848H29.75C29.75 15.1538 27.9689 13.5 24.9511 13.5H17.0489C14.0311 13.5 12.25 15.1538 12.25 17.9487V24.0513C12.25 26.8462 14.0311 28.5 17.0489 28.5H24.9511C27.9689 28.5 29.75 26.8462 29.75 24.0513V23.7913H26.0478C24.3296 23.7913 22.9367 22.4979 22.9367 20.9025C22.9367 19.3071 24.3296 18.0137 26.0478 18.0137V17.9848ZM26.0478 19.227H29.0967C29.4575 19.227 29.75 19.4986 29.75 19.8337V21.9425C29.7458 22.2759 29.4557 22.5452 29.0967 22.5491H26.1178C25.2479 22.56 24.4873 22.007 24.29 21.2203C24.1912 20.7319 24.3299 20.228 24.6689 19.8435C25.008 19.4591 25.5127 19.2334 26.0478 19.227ZM26.18 21.4441H26.4678C26.8372 21.4441 27.1367 21.1661 27.1367 20.8231C27.1367 20.48 26.8372 20.202 26.4678 20.202H26.18C26.0033 20.2 25.8332 20.2639 25.7075 20.3792C25.5818 20.4945 25.5111 20.6518 25.5111 20.8158C25.5111 21.16 25.8093 21.4402 26.18 21.4441ZM16.3956 17.9848H21.3344C21.7039 17.9848 22.0033 17.7068 22.0033 17.3637C22.0033 17.0207 21.7039 16.7427 21.3344 16.7427H16.3956C16.0292 16.7426 15.7309 17.0163 15.7267 17.3565C15.7266 17.7007 16.0249 17.9809 16.3956 17.9848Z" fill="#893800"/>
</svg>
