<svg width="18" height="18" viewBox="0 0 18 18" fill="none" xmlns="http://www.w3.org/2000/svg">
<path d="M9 1.5C13.1325 1.5 16.5 4.8675 16.5 9C16.5 13.14 13.1325 16.5 9 16.5L8.79004 16.4971C4.74699 16.3858 1.5 13.0698 1.5 9C1.5 4.8675 4.86 1.5 9 1.5ZM7.91992 5.83496C7.76995 5.83498 7.62713 5.88752 7.51465 6C7.29734 6.22499 7.29758 6.57747 7.52246 6.79492L9.73535 9L7.52246 11.2051C7.29758 11.4225 7.29734 11.7825 7.51465 12C7.73958 12.2249 8.09205 12.2248 8.30957 12L10.9277 9.39746C11.0326 9.29247 11.0928 9.14993 11.0928 9C11.0928 8.85007 11.0326 8.70753 10.9277 8.60254L8.30957 6C8.20459 5.88765 8.06233 5.83496 7.91992 5.83496Z" fill="#00ADF0"/>
</svg>
