<svg width="18" height="18" viewBox="0 0 18 18" fill="none" xmlns="http://www.w3.org/2000/svg">
<path d="M9 1.5C4.8675 1.5 1.5 4.8675 1.5 9C1.5 13.14 4.8675 16.5 9 16.5L9.20996 16.4971C13.253 16.3858 16.5 13.0698 16.5 9C16.5 4.8675 13.14 1.5 9 1.5ZM10.0801 5.83496C10.23 5.83498 10.3729 5.88752 10.4854 6C10.7027 6.22499 10.7024 6.57747 10.4775 6.79492L8.26465 9L10.4775 11.2051C10.7024 11.4225 10.7027 11.7825 10.4854 12C10.2604 12.2249 9.90795 12.2248 9.69043 12L7.07227 9.39746C6.96735 9.29247 6.90723 9.14993 6.90723 9C6.90723 8.85007 6.96735 8.70753 7.07227 8.60254L9.69043 6C9.79541 5.88765 9.93767 5.83496 10.0801 5.83496Z" fill="#00ADF0"/>
</svg>
