<svg width="24" height="24" viewBox="0 0 24 24" fill="none" xmlns="http://www.w3.org/2000/svg">
<g clip-path="url(#clip0_1875_3862)">
<path d="M15.8323 2.72268C15.9729 2.79223 16.1076 2.86806 16.2429 2.94739C16.2924 2.97535 16.3419 3.00331 16.393 3.03211C16.4929 3.08856 16.5925 3.14541 16.6919 3.20267C16.8403 3.28799 16.9897 3.37115 17.1395 3.45376C17.2393 3.50879 17.3388 3.56423 17.4383 3.61976C17.7367 3.78603 18.0356 3.95125 18.3346 4.11634C18.3784 4.14047 18.3784 4.14047 18.4229 4.16509C18.8698 4.41173 19.3181 4.65573 19.7672 4.89829C20.1016 5.0791 20.4344 5.26275 20.7665 5.44788C21.0648 5.61415 21.3638 5.77934 21.6628 5.94446C21.6918 5.96049 21.7208 5.97652 21.7506 5.99303C22.0605 6.16423 22.3708 6.33453 22.6827 6.50202C22.7331 6.52913 22.7836 6.55624 22.8355 6.58418C22.9293 6.63443 23.0231 6.6845 23.117 6.73435C23.8435 7.1237 23.8435 7.1237 24.0007 7.3595C24.0132 7.50475 24.0132 7.50475 24.0143 7.68587C24.0146 7.71889 24.0149 7.75191 24.0152 7.78593C24.0161 7.89513 24.0163 8.00432 24.0164 8.11353C24.0167 8.18949 24.017 8.26545 24.0174 8.3414C24.0179 8.50068 24.0181 8.65995 24.018 8.81922C24.018 9.02314 24.0193 9.22703 24.0209 9.43094C24.022 9.58786 24.0222 9.74477 24.0221 9.90168C24.0222 9.97685 24.0226 10.052 24.0234 10.1272C24.0243 10.2324 24.024 10.3376 24.0234 10.4429C24.0236 10.5027 24.0237 10.5626 24.0238 10.6242C23.9967 10.8083 23.9429 10.885 23.8132 11.0158C23.6631 11.0908 23.5073 11.086 23.3444 11.0626C23.2127 10.9786 23.133 10.9211 23.0632 10.7814C23.0576 10.7063 23.0549 10.6309 23.0535 10.5556C23.0526 10.5087 23.0517 10.4618 23.0507 10.4134C23.0495 10.3372 23.0495 10.3372 23.0483 10.2595C23.0474 10.2076 23.0464 10.1557 23.0454 10.1023C23.0423 9.93608 23.0395 9.76986 23.0368 9.60364C23.0348 9.49116 23.0327 9.37867 23.0307 9.26618C23.0256 8.99 23.0209 8.71382 23.0163 8.43763C22.8347 8.53751 22.6531 8.63745 22.4715 8.73746C22.4101 8.7713 22.3487 8.80511 22.2872 8.8389C22.1976 8.8882 22.108 8.93756 22.0184 8.98695C21.9887 9.0033 21.959 9.01966 21.9284 9.03651C21.7743 9.12165 21.621 9.20795 21.4687 9.29621C21.4386 9.31363 21.4085 9.33105 21.3775 9.349C21.2942 9.39734 21.2111 9.44597 21.128 9.49461C21.0007 9.56263 21.0007 9.56263 20.9069 9.56263C20.9074 9.61014 20.9074 9.61014 20.9079 9.65861C20.911 9.98863 20.9131 10.3186 20.9146 10.6487C20.9153 10.7718 20.9163 10.8949 20.9175 11.018C20.9192 11.1951 20.92 11.3722 20.9206 11.5493C20.9214 11.6043 20.9221 11.6592 20.9228 11.7158C20.9229 12.1993 20.9229 12.1993 20.7663 12.422C20.6502 12.5084 20.6502 12.5084 20.5026 12.5861C20.4442 12.6173 20.3858 12.6486 20.3274 12.68C20.2939 12.6978 20.2604 12.7155 20.2258 12.7339C20.0892 12.8083 19.9552 12.8867 19.8209 12.9653C19.7171 13.0254 19.6133 13.0855 19.5095 13.1456C19.4597 13.1751 19.41 13.2045 19.3587 13.2348C19.0704 13.3996 18.8509 13.4988 18.5163 13.5001C18.3753 13.4431 18.3084 13.4033 18.2299 13.2736C18.1841 13.1622 18.1753 13.0815 18.1732 12.9614C18.1723 12.9201 18.1714 12.8788 18.1704 12.8363C18.1696 12.7701 18.1696 12.7701 18.1688 12.7025C18.1674 12.6343 18.1674 12.6343 18.166 12.5646C18.1632 12.4194 18.161 12.2742 18.1589 12.129C18.1571 12.0305 18.1552 11.932 18.1534 11.8335C18.1489 11.5922 18.1449 11.3508 18.1413 11.1095C18.114 11.125 18.0868 11.1405 18.0587 11.1565C17.5362 11.4536 17.0128 11.7488 16.486 12.0382C16.4419 12.0626 16.3977 12.0871 16.3522 12.1122C16.3115 12.1345 16.2707 12.1568 16.2288 12.1798C16.1929 12.1994 16.1571 12.2191 16.1201 12.2394C16.0319 12.2814 16.0319 12.2814 15.9382 12.2814C15.9536 14.8183 15.9691 17.3551 15.985 19.9689C17.0062 19.4227 17.0062 19.4227 18.0202 18.8645C18.2808 18.7192 18.5421 18.575 18.8034 18.4308C18.8472 18.4066 18.8472 18.4066 18.892 18.3819C19.2871 18.1637 19.6834 17.9477 20.0807 17.7335C20.4407 17.5395 20.7978 17.3413 21.153 17.1388C21.7675 16.7886 22.3916 16.4567 23.0163 16.1251C23.0169 16.0354 23.0169 16.0354 23.0176 15.9438C23.0195 15.7215 23.0226 15.4992 23.026 15.2768C23.0273 15.1807 23.0283 15.0845 23.029 14.9884C23.03 14.85 23.0322 14.7117 23.0346 14.5733C23.0347 14.5304 23.0347 14.4876 23.0348 14.4434C23.0393 14.2458 23.0462 14.1369 23.1523 13.9657C23.2909 13.8381 23.3877 13.8325 23.57 13.8217C23.7148 13.831 23.7971 13.8757 23.9069 13.9689C24.0102 14.1238 24.013 14.1736 24.015 14.3541C24.0158 14.404 24.0165 14.4539 24.0173 14.5054C24.0175 14.5593 24.0178 14.6132 24.0181 14.6687C24.0185 14.7241 24.0189 14.7796 24.0193 14.8367C24.02 14.954 24.0204 15.0714 24.0206 15.1887C24.0212 15.3682 24.0235 15.5477 24.0258 15.7272C24.0263 15.8412 24.0266 15.9551 24.0268 16.0691C24.0278 16.1228 24.0287 16.1765 24.0296 16.2319C24.0275 16.6046 24.0275 16.6046 23.8918 16.7875C23.8297 16.8309 23.8297 16.8309 23.7663 16.8751C23.7391 16.8942 23.7118 16.9132 23.6838 16.9329C23.6583 16.9465 23.6329 16.9601 23.6066 16.9742C23.5763 16.9907 23.5461 17.0072 23.5149 17.0242C23.4818 17.0417 23.4488 17.0592 23.4147 17.0773C23.3392 17.1183 23.2636 17.1593 23.188 17.2003C23.1252 17.2342 23.1252 17.2342 23.061 17.2688C22.8801 17.3669 22.7001 17.4666 22.5201 17.5663C22.4919 17.5819 22.4637 17.5976 22.4346 17.6137C22.406 17.6295 22.3774 17.6453 22.348 17.6616C21.8943 17.9127 21.4395 18.1614 20.9831 18.4074C20.6232 18.6014 20.2661 18.7996 19.9108 19.0021C19.4842 19.2452 19.0529 19.4785 18.6194 19.7091C18.2461 19.9078 17.8758 20.1108 17.5085 20.3204C17.329 20.4223 17.1493 20.5238 16.9694 20.6251C16.9423 20.6404 16.9153 20.6557 16.8874 20.6714C16.711 20.7708 16.5341 20.8692 16.3566 20.9666C16.299 20.9983 16.2416 21.0304 16.1844 21.0627C16.1042 21.1078 16.0235 21.1519 15.9427 21.1959C15.8966 21.2214 15.8504 21.247 15.8029 21.2734C15.555 21.3666 15.3651 21.3605 15.1236 21.2668C15.0721 21.2384 15.0205 21.21 14.9673 21.1807C14.939 21.1653 14.9106 21.1499 14.8813 21.1341C14.7898 21.0843 14.699 21.0335 14.6081 20.9826C14.5443 20.9476 14.4805 20.9127 14.4167 20.8778C14.2624 20.7934 14.1086 20.7081 13.955 20.6224C13.8514 20.5647 13.7475 20.5076 13.6437 20.4504C13.5143 20.3791 13.3851 20.3072 13.2562 20.2349C12.9614 20.0698 12.6656 19.9066 12.3698 19.7433C12.3261 19.7191 12.3261 19.7191 12.2814 19.6945C11.8346 19.4479 11.3864 19.2039 10.9373 18.9613C10.6028 18.7805 10.2701 18.5969 9.93798 18.4118C9.66896 18.2618 9.39947 18.1128 9.12987 17.9639C9.07124 17.9315 9.01262 17.8991 8.954 17.8667C8.64195 17.6942 8.32942 17.5228 8.01519 17.3543C7.9639 17.3268 7.91261 17.2992 7.85976 17.2709C7.76361 17.2194 7.66734 17.1681 7.57095 17.117C7.03202 16.8285 7.03202 16.8285 6.93817 16.6408C6.93419 16.5523 6.93314 16.4638 6.93359 16.3753C6.93381 16.2964 6.93381 16.2964 6.93405 16.216C6.93463 16.1333 6.93463 16.1333 6.93524 16.049C6.93545 15.9935 6.93566 15.938 6.93588 15.8809C6.93643 15.7435 6.9372 15.6062 6.93817 15.4689C6.86158 15.4697 6.86158 15.4697 6.78346 15.4705C6.30206 15.4752 5.82066 15.4787 5.33924 15.481C5.09174 15.4822 4.84426 15.4839 4.59677 15.4866C4.35788 15.4891 4.11901 15.4905 3.8801 15.4911C3.78901 15.4916 3.69792 15.4924 3.60683 15.4937C3.47912 15.4954 3.35148 15.4956 3.22376 15.4955C3.1862 15.4963 3.14864 15.4972 3.10994 15.498C2.9192 15.4963 2.80077 15.4781 2.64911 15.3574C2.53192 15.2345 2.53192 15.2345 2.49621 15.1173C2.50251 14.9052 2.50842 14.7977 2.63738 14.6222C2.8612 14.4645 3.07409 14.478 3.34083 14.4792C3.39916 14.4792 3.39916 14.4792 3.45868 14.4792C3.58701 14.4792 3.71535 14.4796 3.84368 14.4799C3.93275 14.48 4.02181 14.4801 4.11087 14.4801C4.34514 14.4803 4.5794 14.4808 4.81367 14.4813C5.09483 14.4818 5.37599 14.4821 5.65715 14.4823C6.08416 14.4828 6.51116 14.4837 6.93817 14.4845C6.93817 13.6956 6.93817 12.9067 6.93817 12.0939C6.73109 12.0966 6.52401 12.0993 6.31066 12.1021C6.14529 12.1036 5.97993 12.1049 5.81455 12.106C5.64011 12.1072 5.4657 12.1089 5.29128 12.1116C5.1232 12.1141 4.95515 12.1155 4.78706 12.1161C4.72301 12.1165 4.65896 12.1174 4.59492 12.1187C4.09387 12.1282 4.09387 12.1282 3.9408 12.0434C3.81714 11.9236 3.75521 11.8058 3.73602 11.6368C3.75466 11.443 3.81354 11.3515 3.93817 11.2033C4.11365 11.1138 4.25752 11.098 4.45302 11.0989C4.53605 11.0989 4.53605 11.0989 4.62076 11.0989C4.70969 11.0996 4.70969 11.0996 4.80041 11.1003C4.89199 11.1005 4.89199 11.1005 4.98542 11.1008C5.14718 11.1011 5.30892 11.102 5.47067 11.1031C5.63595 11.104 5.80123 11.1045 5.96652 11.1049C6.29041 11.1059 6.61427 11.1077 6.93817 11.1095C6.93817 10.5681 6.93817 10.0267 6.93817 9.46888C6.76899 9.47011 6.59982 9.47133 6.42553 9.4726C5.86705 9.47648 5.30857 9.47908 4.75008 9.48102C4.41142 9.48223 4.07276 9.48388 3.73411 9.48656C3.43891 9.4889 3.14373 9.49041 2.84853 9.49093C2.69223 9.49124 2.53596 9.49208 2.37967 9.49366C2.20514 9.49536 2.03067 9.4956 1.85613 9.49549C1.7785 9.49675 1.7785 9.49675 1.6993 9.49804C1.3483 9.49567 1.3483 9.49567 1.16497 9.35589C1.02534 9.15922 1.02299 9.05668 1.05169 8.82178C1.07879 8.71888 1.07879 8.71888 1.19012 8.60169C1.3608 8.50416 1.48574 8.47866 1.67891 8.47887C1.74842 8.47877 1.74842 8.47877 1.81933 8.47867C1.87011 8.47884 1.92089 8.47901 1.9732 8.47918C2.02672 8.47918 2.08023 8.47917 2.13536 8.47916C2.31265 8.47919 2.48994 8.47956 2.66723 8.47993C2.78999 8.48001 2.91275 8.48008 3.03551 8.48013C3.32586 8.48027 3.61621 8.48066 3.90656 8.48113C4.23712 8.48165 4.56768 8.48191 4.89824 8.48215C5.57822 8.48264 6.25819 8.48346 6.93817 8.4845C6.93669 8.43523 6.93669 8.43523 6.93519 8.38495C6.93128 8.23553 6.92885 8.08611 6.92645 7.93665C6.92488 7.88496 6.9233 7.83327 6.92169 7.78001C6.91704 7.39567 6.91704 7.39567 7.02462 7.21148C7.14403 7.10943 7.2619 7.03734 7.40142 6.96491C7.45568 6.93636 7.50994 6.90782 7.56584 6.87841C7.62419 6.84834 7.68255 6.81828 7.7409 6.78821C7.80115 6.75666 7.86136 6.72504 7.92154 6.69335C8.01144 6.64604 8.10135 6.59875 8.19137 6.55166C8.41519 6.43457 8.63686 6.3142 8.85711 6.19056C8.92284 6.15381 8.98858 6.11706 9.05432 6.08033C9.08946 6.06068 9.1246 6.04102 9.16081 6.02077C9.42147 5.87545 9.68276 5.73127 9.94402 5.58704C9.97312 5.57098 10.0022 5.55491 10.0322 5.53836C10.4833 5.28934 10.9359 5.04333 11.3894 4.79871C11.6242 4.67176 11.8575 4.54306 12.0886 4.40931C12.3906 4.23459 12.6979 4.07009 13.0055 3.9054C13.458 3.66314 13.9068 3.41553 14.3526 3.16132C14.434 3.11492 14.5156 3.06882 14.5973 3.02302C14.6819 2.97469 14.7655 2.92463 14.8483 2.87324C15.1856 2.67122 15.4532 2.57322 15.8323 2.72268ZM15.2105 3.81843C15.1669 3.84331 15.1233 3.86819 15.0784 3.89383C15.0315 3.92085 14.9846 3.94787 14.9362 3.97571C14.8386 4.03143 14.741 4.08709 14.6434 4.14271C14.5938 4.17099 14.5442 4.19926 14.4931 4.2284C14.2659 4.35709 14.0373 4.48303 13.8083 4.60853C13.7678 4.63072 13.7273 4.65292 13.6856 4.67578C13.5927 4.72666 13.4999 4.77749 13.4069 4.82825C13.526 4.96413 13.6597 5.03619 13.8187 5.11994C13.8731 5.14879 13.9275 5.17764 13.9836 5.20736C14.0123 5.22246 14.0411 5.23755 14.0707 5.2531C14.2214 5.33228 14.3717 5.4123 14.522 5.49219C14.5666 5.51582 14.5666 5.51582 14.612 5.53993C14.8357 5.65867 15.058 5.77974 15.279 5.90345C15.3108 5.92123 15.3426 5.93901 15.3754 5.95733C15.4445 5.99596 15.5136 6.03459 15.5827 6.07323C15.8433 6.21856 16.1046 6.36274 16.3659 6.50696C16.4096 6.53111 16.4096 6.53111 16.4542 6.55574C16.9011 6.80237 17.3493 7.04636 17.7984 7.28892C18.0319 7.41516 18.2652 7.54181 18.4971 7.6711C18.5623 7.70734 18.6278 7.74321 18.6935 7.77868C18.8913 7.88644 19.083 8.00059 19.2728 8.12223C19.8949 8.56826 19.8949 8.56826 20.5975 8.70972C20.7598 8.64388 20.8897 8.53751 21.0252 8.42829C21.2582 8.25884 21.5189 8.13221 21.7726 7.99667C21.9258 7.91426 22.0777 7.82952 22.2297 7.74476C22.2818 7.71572 22.334 7.68669 22.3878 7.65678C22.4437 7.62564 22.4437 7.62564 22.5007 7.59388C22.3676 7.48391 22.2407 7.38491 22.0865 7.30695C22.0357 7.28088 22.0357 7.28088 21.984 7.25428C21.9476 7.23583 21.9112 7.21738 21.8737 7.19837C21.5324 7.02211 21.1965 6.83824 20.863 6.64759C20.4592 6.41723 20.0517 6.19491 19.6413 5.97669C19.1956 5.73967 18.7541 5.49642 18.3158 5.2461C17.9367 5.03051 17.5526 4.82457 17.1675 4.61999C16.7207 4.38259 16.2791 4.13741 15.8411 3.88416C15.7995 3.86029 15.758 3.83643 15.7151 3.81184C15.6788 3.79078 15.6425 3.76973 15.6051 3.74803C15.4396 3.66457 15.3621 3.73133 15.2105 3.81843ZM11.9684 5.60169C11.9258 5.62517 11.9258 5.62517 11.8823 5.64912C11.8122 5.68773 11.7424 5.72671 11.6725 5.76575C11.6725 5.79669 11.6725 5.82763 11.6725 5.8595C11.7502 5.89966 11.7502 5.89966 11.8295 5.94062C12.2494 6.159 12.6648 6.38367 13.0759 6.61829C13.4796 6.84862 13.8872 7.07098 14.2975 7.28919C14.7432 7.52621 15.1847 7.76947 15.623 8.01978C16.0022 8.2354 16.3864 8.44122 16.7715 8.64598C17.2939 8.92397 17.8098 9.21264 18.3231 9.50721C18.5006 9.61937 18.5006 9.61937 18.6988 9.64741C18.8267 9.59832 18.944 9.53744 19.0641 9.47181C19.1098 9.44722 19.1554 9.42262 19.2024 9.39728C19.3183 9.33847 19.3183 9.33847 19.36 9.2345C19.3231 9.21498 19.2861 9.19545 19.2481 9.17533C18.5875 8.82579 17.9289 8.47419 17.28 8.10324C16.9298 7.9038 16.5753 7.71281 16.2194 7.52357C15.8179 7.31004 15.419 7.09283 15.0241 6.86732C14.567 6.60632 14.1044 6.35671 13.6397 6.10971C13.3013 5.92956 12.965 5.74655 12.6348 5.55184C12.3584 5.39188 12.2319 5.45382 11.9684 5.60169ZM10.2136 6.57142C10.1746 6.59197 10.1356 6.61251 10.0954 6.63369C9.76796 6.80755 9.4438 6.98708 9.12078 7.16907C9.07446 7.1951 9.02814 7.22112 8.98041 7.24794C8.91512 7.28494 8.91512 7.28494 8.8485 7.3227C8.80999 7.34451 8.77147 7.36632 8.73179 7.38879C8.62853 7.45151 8.53343 7.5197 8.43817 7.59388C8.47351 7.61272 8.50885 7.63157 8.54526 7.65098C9.19063 7.99533 9.83485 8.3412 10.4733 8.69823C10.734 8.84356 10.9953 8.98774 11.2565 9.13196C11.3003 9.15611 11.3003 9.15611 11.3449 9.18074C11.7917 9.42737 12.24 9.67136 12.689 9.91392C12.9556 10.058 13.2214 10.2032 13.486 10.3507C13.518 10.3685 13.55 10.3864 13.5829 10.4047C13.6535 10.444 13.724 10.4833 13.7945 10.5226C14.0454 10.6623 14.2963 10.8018 14.5475 10.9409C14.6089 10.9749 14.6703 11.009 14.7316 11.0431C14.8181 11.0913 14.9047 11.1392 14.9913 11.1871C15.0417 11.2151 15.092 11.243 15.1439 11.2718C15.3251 11.367 15.3251 11.367 15.5163 11.4376C15.6465 11.3828 15.7542 11.3262 15.8737 11.2531C15.9479 11.2097 16.0221 11.1665 16.0964 11.1232C16.1375 11.099 16.1787 11.0747 16.2211 11.0497C16.4648 10.908 16.7119 10.7724 16.9587 10.6361C17.0987 10.5586 17.2386 10.4808 17.3785 10.4031C17.4609 10.3573 17.5433 10.3115 17.6257 10.2658C17.5065 10.1299 17.3729 10.0578 17.2139 9.97407C17.1595 9.94522 17.105 9.91637 17.049 9.88665C17.0059 9.864 17.0059 9.864 16.9619 9.84091C16.8112 9.76173 16.6609 9.6817 16.5106 9.60181C16.4808 9.58606 16.4511 9.57031 16.4205 9.55408C16.1968 9.43533 15.9746 9.31427 15.7536 9.19056C15.7218 9.17278 15.69 9.155 15.6572 9.13668C15.5881 9.09805 15.519 9.05942 15.4499 9.02077C15.1892 8.87545 14.9279 8.73126 14.6667 8.58704C14.6375 8.57095 14.6084 8.55485 14.5783 8.53827C14.1315 8.29164 13.6833 8.04765 13.2342 7.80509C12.9011 7.62505 12.5698 7.44219 12.2391 7.25788C11.9481 7.09574 11.6568 6.93419 11.3654 6.77297C11.3027 6.73829 11.2401 6.70358 11.1775 6.66882C11.0896 6.62003 11.0016 6.57135 10.9136 6.52271C10.8622 6.49427 10.8109 6.46584 10.758 6.43654C10.5465 6.32526 10.4098 6.46791 10.2136 6.57142ZM7.87567 8.39075C7.87567 10.9431 7.87567 13.4954 7.87567 16.1251C8.73859 16.6141 8.73859 16.6141 9.61004 17.0861C10.0559 17.3228 10.4972 17.5663 10.9355 17.8167C11.2874 18.0167 11.6434 18.2085 12.0007 18.3986C12.4041 18.6131 12.8049 18.8313 13.2018 19.0577C13.6014 19.2856 14.004 19.5075 14.4089 19.7257C14.4624 19.7547 14.516 19.7836 14.5712 19.8134C14.6205 19.8399 14.6698 19.8664 14.7205 19.8936C14.7645 19.9172 14.8084 19.9409 14.8537 19.9652C14.9421 20.0193 14.9421 20.0193 15.0007 20.0158C15.0007 17.4634 15.0007 14.9111 15.0007 12.2814C14.5985 12.0648 14.1963 11.8483 13.7819 11.6251C13.5413 11.492 13.3009 11.3587 13.0608 11.2247C12.7996 11.0792 12.5378 10.9347 12.2761 10.7902C12.2323 10.766 12.2323 10.766 12.1877 10.7414C11.7409 10.4948 11.2926 10.2508 10.8435 10.0082C10.5101 9.82794 10.1783 9.64484 9.84716 9.46027C9.56268 9.30174 9.27779 9.14394 8.99276 8.98639C8.93236 8.95299 8.87197 8.91956 8.8116 8.88609C8.72611 8.8387 8.64055 8.79142 8.55499 8.74415C8.50537 8.71669 8.45575 8.68924 8.40463 8.66095C8.23021 8.56727 8.05276 8.4793 7.87567 8.39075ZM19.1725 10.5001C19.1725 11.0415 19.1725 11.5829 19.1725 12.1408C19.4321 12.0369 19.6772 11.8996 19.9225 11.7658C19.9225 11.2243 19.9225 10.6829 19.9225 10.1251C19.643 10.1251 19.4192 10.3686 19.1725 10.5001Z" fill="#202939"/>
<path d="M0.815302 14.4727C0.850106 14.4717 0.884911 14.4708 0.92077 14.4698C1.1491 14.4682 1.30264 14.4998 1.50085 14.6251C1.60388 14.7521 1.63791 14.8355 1.66198 14.9971C1.63603 15.1788 1.56686 15.2792 1.45397 15.4219C1.26806 15.5149 1.03731 15.4836 0.83288 15.4864C0.759917 15.489 0.759917 15.489 0.68548 15.4917C0.281904 15.4963 0.281904 15.4963 0.109064 15.3652C-0.0365467 15.1893 -0.0373015 15.097 -0.0238708 14.8772C0.0141907 14.7055 0.094063 14.6308 0.235223 14.5313C0.425614 14.4712 0.61737 14.4741 0.815302 14.4727Z" fill="#202939"/>
<path d="M2.62445 11.1561C2.76322 11.2771 2.83983 11.352 2.8797 11.5311C2.88954 11.7042 2.86389 11.8044 2.77094 11.95C2.6075 12.1087 2.48214 12.1119 2.26172 12.1104C2.09358 12.0837 2.02125 11.9904 1.92133 11.8592C1.85415 11.7249 1.86009 11.6336 1.87445 11.4842C1.95593 11.3273 2.01954 11.2293 2.17035 11.1356C2.34228 11.0996 2.45496 11.1077 2.62445 11.1561Z" fill="#202939"/>
<path d="M23.8116 11.9999C23.9427 12.1022 23.9883 12.1715 24.0165 12.3353C24.0271 12.5281 24.0152 12.6303 23.9112 12.7968C23.7577 12.9412 23.6493 12.953 23.4384 12.9511C23.2898 12.9298 23.2107 12.8552 23.1085 12.7499C23.0274 12.5877 23.0389 12.4116 23.0616 12.2343C23.2485 11.9249 23.484 11.9159 23.8116 11.9999Z" fill="#202939"/>
</g>
<defs>
<clipPath id="clip0_1875_3862">
<rect width="24" height="24" fill="white"/>
</clipPath>
</defs>
</svg>
